HIERARCHY
ROOT Root
{
	OFFSET 0.00000 0.00000 0.00000
	CHANNELS 6 Xposition Yposition Zposition Zrotation Xrotation Yrotation
	JOINT Hip
	{
		OFFSET 0 0 0	
		CHANNELS 3 Zrotation Xrotation Yrotation
		JOINT Tummy
		{
			OFFSET 0 0.04 0	
			CHANNELS 3 Zrotation Xrotation Yrotation
			JOINT ChestBottom
			{
				OFFSET 0 0.194 0	
				CHANNELS 3 Zrotation Xrotation Yrotation
				JOINT ChestTop
				{
					OFFSET 0 0.166 0	
					CHANNELS 3 Zrotation Xrotation Yrotation
					JOINT LeftCollar
					{
						OFFSET 0 0.1 0	
						CHANNELS 3 Zrotation Xrotation Yrotation
						JOINT LeftUpperArm
						{
							OFFSET 0.156 -0.02 0.03	
							CHANNELS 3 Zrotation Xrotation Yrotation
							JOINT LeftForeArm
							{
								OFFSET 0.035 -0.27 -0.01	
								CHANNELS 3 Zrotation Xrotation Yrotation
								JOINT LeftHand
								{
									OFFSET 0.01 -0.27 0.01	
									CHANNELS 3 Zrotation Xrotation Yrotation
									End Site
									{
										OFFSET 0 -0.15 0
									}
								}
							}
						}
					}
					JOINT RightCollar
					{
						OFFSET 0 0.1 0	
						CHANNELS 3 Zrotation Xrotation Yrotation
						JOINT RightUpperArm
						{
							OFFSET -0.156 -0.02 0.03	
							CHANNELS 3 Zrotation Xrotation Yrotation
							JOINT RightForeArm
							{
								OFFSET -0.035 -0.27 -0.01	
								CHANNELS 3 Zrotation Xrotation Yrotation
								JOINT RightHand
								{
									OFFSET -0.01 -0.27 0.01	
									CHANNELS 3 Zrotation Xrotation Yrotation
									End Site
									{
										OFFSET 0 -0.15 0
									}
								}
							}
						}
					}
					JOINT Neck
					{
						OFFSET 0 0.1 0	
						CHANNELS 3 Zrotation Xrotation Yrotation
						JOINT Head
						{
							OFFSET 0 0.127 0.03	
							CHANNELS 3 Zrotation Xrotation Yrotation
							End Site
							{
								OFFSET 0 0.127 0.03
							}
						}
					}
				}
			}
		}
	}
	JOINT LeftHip
	{
		OFFSET 0 0 0	
		CHANNELS 3 Zrotation Xrotation Yrotation
		JOINT LeftThigh
		{
			OFFSET 0.088 -0.06 0	
			CHANNELS 3 Zrotation Xrotation Yrotation
			JOINT LeftLowerLeg
			{
				OFFSET 0 -0.39 0.02	
				CHANNELS 3 Zrotation Xrotation Yrotation
				JOINT LeftFootTop
				{
					OFFSET 0 -0.43 -0.02	
					CHANNELS 3 Zrotation Xrotation Yrotation
					JOINT LeftFootFront
					{
						OFFSET 0 -0.07 0.085	
						CHANNELS 3 Zrotation Xrotation Yrotation
						End Site
						{
							OFFSET 0 -0.005 0.09
						}
					}
				}
				JOINT LeftHeel
				{
					OFFSET 0 -0.43 -0.02	
					CHANNELS 3 Zrotation Xrotation Yrotation
					End Site
					{
						OFFSET 0 -0.075 -0.05
					}
				}
			}
		}
	}
	JOINT RightHip
	{
		OFFSET 0 0 0	
		CHANNELS 3 Zrotation Xrotation Yrotation
		JOINT RightThigh
		{
			OFFSET -0.088 -0.06 0	
			CHANNELS 3 Zrotation Xrotation Yrotation
			JOINT RightLowerLeg
			{
				OFFSET 0 -0.39 0.02	
				CHANNELS 3 Zrotation Xrotation Yrotation
				JOINT RightFootTop
				{
					OFFSET 0 -0.43 -0.02	
					CHANNELS 3 Zrotation Xrotation Yrotation
					JOINT RightFootFront
					{
						OFFSET 0 -0.07 0.085	
						CHANNELS 3 Zrotation Xrotation Yrotation
						End Site
						{
							OFFSET 0 -0.005 0.09
						}
					}
				}
				JOINT RightHeel
				{
					OFFSET 0 -0.43 -0.02	
					CHANNELS 3 Zrotation Xrotation Yrotation
					End Site
					{
						OFFSET 0 -0.075 -0.05
					}
				}
			}
		}
	}
}
MOTION
Frames: 12
Frame Time: 0.05
0 0.95305 0 -0 0 -0 -7.0317 -3.1242 -68.18 -0.65326 5.0904 2.4032 -0.65326 5.0904 2.4032 -0.53411 4.2779 2.0139 -0 0 -0 2.926 -7.2527 -5.5991 -0.72636 1.103 4.8459 15.108 0.69308 -22.586 -0 0 -0 -2.5245 -8.6466 5.3084 -0.62094 -4.7714 -21.577 0.41275 -0.27915 19.482 1.8798 -12.41 0.63449 1.7563 -8.0613 2.52 -7.0317 -3.1242 -68.18 7.1447 6.3568 -2.7877 -5.6805 2.7188 4.7941 -13.337 -6.5091 -2.2997 0 0 -9.3381e-08 -0 0 -0 -7.0317 -3.1242 -68.18 -2.8637 16.139 11.595 1.8368 -8.7877 -9.2444 3.4897 -0.74216 1.482 0 0 -3.4685e-07 -0 0 -0 
0 0.953 0 -0 0 -0 -5.5752 -2.3188 -67.844 -0.57914 4.2283 2.3315 -0.57914 4.2283 2.3315 -0.47475 3.5534 1.955 -0 0 -0 2.8912 -6.5666 -5.7133 -0.65907 1.1114 4.7622 15.256 0.54791 -22.808 -0 0 -0 -2.5511 -7.8129 5.218 -0.56487 -4.9483 -21.393 0.38167 -0.098329 19.714 1.8328 -11.779 0.91642 1.7401 -8.1592 2.7718 -5.5752 -2.3188 -67.844 7.3243 4.589 -2.754 -5.5824 2.7057 4.8106 -13.406 -6.3651 -2.3665 -0.05011 -0.011518 0.0067031 -0 0 -0 -5.5752 -2.3188 -67.844 -2.5973 14.465 11.296 1.875 -8.7632 -9.2204 3.478 -0.74317 1.4065 -0.027749 -0.0085626 -0.0057319 -0 0 -0 
0 0.95295 0 -0 0 -0 -4.0499 -1.4757 -67.521 -0.52789 3.2309 2.2469 -0.52789 3.2309 2.2469 -0.43483 2.7154 1.8851 -0 0 -0 2.9464 -5.5905 -5.6796 -0.60296 1.1226 4.556 15.295 0.53693 -22.857 -0 0 -0 -2.5364 -6.6384 5.2765 -0.48257 -5.1736 -21.335 0.37977 -0.013319 19.904 1.8466 -10.964 1.2599 1.7581 -8.1838 3.0729 -4.0499 -1.4757 -67.521 7.5177 2.8353 -2.849 -5.6075 2.5529 4.8991 -13.411 -6.2221 -2.3674 -0.051736 -0.01186 0.0065288 -0 0 -0 -4.0499 -1.4757 -67.521 -2.3538 12.75 10.992 1.9387 -8.8304 -9.1571 3.4096 -0.70789 1.2961 -0.029647 -0.0091521 -0.0062719 -0 0 -0 
0 0.95291 0 -0 0 -0 -2.6847 -0.71004 -67.355 -0.49637 2.2724 2.2046 -0.49637 2.2724 2.2046 -0.41104 1.9101 1.8504 -0 0 -0 3.0289 -4.5384 -5.6389 -0.54865 1.137 4.4042 15.336 0.44211 -22.97 -0 0 -0 -2.4239 -5.5268 5.5783 -0.51405 -5.1831 -21.478 0.44146 -0.00017098 19.993 1.9388 -10.187 1.7625 1.8468 -8.2101 3.5646 -2.6847 -0.71004 -67.355 7.7123 1.2896 -2.7995 -5.6554 2.4695 4.9085 -13.421 -6.1707 -2.3444 -0.033257 -0.0097498 0.0049642 -0 0 -0 -2.6847 -0.71004 -67.355 -2.1284 11.207 10.805 1.9181 -8.8859 -9.1461 3.3889 -0.66758 1.2543 -0.016955 -0.0052998 -0.0058737 -0 0 -0 
0 0.9529 0 -0 0 -0 -2.0004 -0.27148 -67.403 -0.48074 1.6 2.1754 -0.48074 1.6 2.1754 -0.39972 1.3453 1.8264 -0 0 -0 3.1332 -3.5215 -5.4993 -0.51457 1.1381 4.3793 15.28 0.42702 -22.96 -0 0 -0 -2.2189 -4.6418 6.0935 -0.62463 -4.9536 -21.719 0.53679 -0.055703 20.05 2.1444 -9.5857 2.537 2.0428 -8.1684 4.3294 -2.0004 -0.27148 -67.403 7.8855 0.55054 -2.5976 -5.6622 2.3793 4.8715 -13.474 -6.1304 -2.34 -0.021938 -0.0076115 0.0070714 -0 0 -0 -2.0004 -0.27148 -67.403 -1.9364 10.352 10.801 1.8759 -8.9241 -9.1373 3.3575 -0.57317 1.2515 0.000431 0.0014769 -0.0045753 -0 0 -0 
0 0.95292 0 -0 0 -0 -2.1279 -0.19351 -67.543 -0.37112 1.4625 2.1513 -0.37112 1.4625 2.1513 -0.30804 1.2295 1.8064 -0 0 -0 2.9834 -3.0798 -5.5725 -0.55807 1.0674 4.6846 15.228 0.49258 -22.92 -0 0 -0 -2.2374 -4.4512 6.4766 -0.75399 -4.6751 -22.002 0.58718 -0.11916 20.201 2.3422 -9.5715 3.6218 2.3284 -8.2647 5.3945 -2.1279 -0.19351 -67.543 7.9895 0.68411 -2.3698 -5.6538 2.3922 4.8006 -13.49 -6.1588 -2.3745 -0.0080645 0.0055699 0.013246 -0 0 -0 -2.1279 -0.19351 -67.543 -1.7101 10.379 10.89 1.8076 -9.0032 -9.1446 3.2905 -0.41792 1.2816 0.0019517 -0.00053247 -0.0021241 -0 0 -0 
0 0.95298 0 -0 0 -0 -2.8293 -0.49057 -67.662 -0.38843 1.9813 2.2532 -0.38843 1.9813 2.2532 -0.32103 1.6654 1.8916 -0 0 -0 3.0483 -3.8429 -6.09 -0.64754 0.9291 5.0088 15.213 0.68319 -22.749 -0 0 -0 -2.164 -5.3508 6.1532 -0.71193 -4.6301 -22.288 0.45277 -0.14412 20.234 2.7668 -10.499 4.6914 2.7791 -8.7391 6.5208 -2.8293 -0.49057 -67.662 7.987 1.5098 -2.326 -5.6333 2.4083 4.8466 -13.536 -6.1964 -2.4638 -0.026079 0.00074585 0.018396 -0 0 -0 -2.8293 -0.49057 -67.662 -1.6053 11.073 10.983 1.698 -8.9044 -9.1046 3.2853 -0.43052 1.2596 -0.0040632 0.0080758 -0.0043516 -0 0 -0 
0 0.95306 0 -0 0 -0 -3.6736 -0.99521 -67.728 -0.43904 2.6094 2.3161 -0.43904 2.6094 2.3162 -0.36166 2.1931 1.944 -0 0 -0 3.0491 -4.7558 -6.268 -0.66816 0.84037 5.0096 15.174 0.97118 -22.501 -0 0 -0 -2.154 -6.192 5.8 -0.60486 -4.7771 -22.573 0.33312 -0.30711 20.147 3.1797 -11.378 5.7501 3.1821 -9.0744 7.5911 -3.6736 -0.99521 -67.728 7.8877 2.5207 -2.4516 -5.6569 2.3998 4.9212 -13.591 -6.2206 -2.4915 -0.011979 0.0019828 0.0053272 -0 0 -0 -3.6736 -0.99521 -67.728 -1.6818 12.072 11.085 1.5999 -8.875 -9.1083 3.2912 -0.46476 1.2262 -0.010084 0.026986 -0.0049727 -0 0 -0 
0 0.95314 0 -0 0 -0 -4.3565 -1.478 -67.771 -0.52653 3.0546 2.3203 -0.52653 3.0546 2.3203 -0.4339 2.5674 1.9469 -0 0 -0 3.0838 -5.3157 -6.0415 -0.59509 0.81699 4.9422 15.106 1.2563 -22.489 -0 0 -0 -2.0138 -6.6576 5.7741 -0.54234 -4.8097 -22.868 0.26671 -0.80174 19.638 3.5004 -11.83 6.6292 3.4392 -9.1431 8.4366 -4.3565 -1.478 -67.771 7.7345 3.463 -2.5702 -5.71 2.3206 4.9129 -13.579 -6.2818 -2.4718 -0.023793 0.0023627 0.0048262 -0 0 -0 -4.3565 -1.478 -67.771 -1.8724 12.89 11.12 1.5507 -8.8385 -9.0745 3.3275 -0.47132 1.2007 -0.0090677 0.025176 -0.0068956 -0 0 -0 
0 0.9532 0 -0 0 -0 -4.8522 -1.8658 -67.86 -0.62408 3.4273 2.3655 -0.62408 3.4273 2.3655 -0.51461 2.8807 1.9841 -0 0 -0 3.1122 -5.825 -5.8531 -0.45444 0.81819 4.9698 14.988 1.4548 -22.581 -0 0 -0 -1.8843 -7.127 5.68 -0.43788 -4.7128 -23.016 0.34508 -1.3543 18.964 3.6179 -12.247 7.2098 3.4925 -9.2408 9.0292 -4.8522 -1.8658 -67.86 7.5405 4.2255 -2.6054 -5.7577 2.1835 4.8917 -13.525 -6.3102 -2.4365 0.00012364 0.0029054 0.0061134 -0 0 -0 -4.8522 -1.8658 -67.86 -2.0824 13.513 11.185 1.5306 -8.8089 -9.0631 3.362 -0.49031 1.217 -0.0036997 0.0065008 -0.0064301 -0 0 -0 
0 0.95323 0 -0 0 -0 -5.1012 -2.0237 -67.983 -0.652 3.5476 2.3868 -0.652 3.5476 2.3868 -0.53762 2.9819 2.0017 -0 0 -0 3.0979 -5.8389 -5.5509 -0.35041 0.79104 4.9062 14.891 1.6152 -22.665 -0 0 -0 -1.8929 -7.1255 5.5532 -0.28968 -4.6043 -22.922 0.42012 -1.9502 18.409 3.5524 -12.426 7.626 3.4131 -9.3197 9.4606 -5.1012 -2.0237 -67.983 7.4753 4.6017 -2.5335 -5.8254 2.1636 4.8626 -13.45 -6.3723 -2.4162 0.010986 0.0075825 0.0061233 -0 0 -0 -5.1012 -2.0237 -67.983 -2.1224 13.829 11.258 1.4797 -8.7538 -9.0245 3.3808 -0.55588 1.2206 -0.0024558 0.0024373 -0.00504 -0 0 -0 
0 0.95322 0 -0 0 -0 -5.2693 -2.106 -68.081 -0.67139 3.6465 2.4536 -0.67139 3.6465 2.4536 -0.55334 3.065 2.0576 -0 0 -0 3.0527 -5.7622 -5.1462 -0.24745 0.67835 4.5229 14.826 1.7292 -22.717 -0 0 -0 -1.8436 -7.0881 5.3168 -0.25633 -4.5029 -22.856 0.60888 -2.3803 18.081 3.3809 -12.78 7.8302 3.2507 -9.5918 9.727 -5.2693 -2.106 -68.081 7.4907 4.8551 -2.482 -5.8761 2.1533 4.8717 -13.425 -6.4134 -2.4223 -0.0054924 0.012159 0.0090291 -0 0 -0 -5.2693 -2.106 -68.081 -2.1794 14.025 11.316 1.5215 -8.6532 -8.9669 3.3781 -0.67098 1.2167 -0.0025761 0.0075515 -0.0052881 -0 0 -0 
